<?xml version="1.0" encoding="utf-8"?>
<!-- Generator: Adobe Illustrator 27.5.0, SVG Export Plug-In . SVG Version: 6.00 Build 0)  -->
<svg version="1.1" id="Layer_1" xmlns="http://www.w3.org/2000/svg" xmlns:xlink="http://www.w3.org/1999/xlink" x="0px" y="0px"
	 viewBox="0 0 3000 2000" style="enable-background:new 0 0 3000 2000;" xml:space="preserve">
<rect style="fill:transparent;" width="3000" height="2000"/>
<path style="fill:#F6F9FF;" d="M1031.559,1601.612c-108.754-32.288-213.431-74.261-304.096-132.103
	c-391.644-249.86-305.557-828.636,1.768-1109.862c96.37-88.186,221.229-149.719,352.346-160.626
	c146.748-12.207,300.375,33.84,410.826,132.476c100.358,89.623,159.307,212.598,289.85,265.708
	c151.412,61.601,319.332,37.474,478.029,55.723c311.944,35.871,515.8,309.2,446.898,621.096
	c-79.853,361.473-412.106,441.927-734.157,454.52c-186.72,7.301-373.44-11.434-557.278-43.185
	C1292.803,1664.127,1159.366,1639.557,1031.559,1601.612z"/>
<g>
	<g>
		<g>
			<path style="fill:#D4DFFF;" d="M668.98,1165.443c-15.964,14.018-39.73,18.488-59.696,11.228
				c-19.966-7.26-35.31-25.951-38.542-46.949c-3.802-24.705,6.714-54.396-10.749-72.28c-8.775-8.986-22.724-12.072-30.161-22.193
				c-6.244-8.498-6.381-19.873-6.265-30.418c0.206-18.725,0.413-37.45,0.619-56.175c-8.331-10.393-25.142-9.766-35.091-18.624
				c-9.841-8.763-11.976-23.065-13.741-36.123c-5.213-38.57-12.512-76.859-21.854-114.642c29.201,8.582,58.107,17.886,85.787,30.542
				c15.448,7.063,31.597,15.683,39.349,30.797c7.8,15.208,5.303,33.34,5.066,50.43c-0.076,5.52,0.145,11.225,2.478,16.228
				c6.013,12.895,22.563,15.864,34.898,22.956c13.627,7.836,23.128,22.445,24.763,38.079c1.485,14.191-3.128,28.67-0.446,42.683
				c5.945,31.067,43.168,45.408,58.044,73.321C718.992,1113.49,693.831,1143.621,668.98,1165.443z"/>
			<path style="fill:#1C056D;" d="M745.604,1443.055c-0.507,0-0.957-0.364-1.046-0.882c-5.856-33.918-26.33-125.614-61.893-229.887
				c-26.101-76.528-56.326-148.861-89.835-214.989c-41.878-82.643-89.03-155.77-140.148-217.353
				c-0.375-0.452-0.313-1.121,0.139-1.496c0.451-0.375,1.121-0.313,1.497,0.139c51.224,61.709,98.468,134.978,140.419,217.771
				c33.555,66.222,63.819,138.653,89.953,215.281c35.603,104.394,56.1,196.209,61.963,230.173c0.1,0.578-0.288,1.128-0.867,1.228
				C745.725,1443.05,745.664,1443.055,745.604,1443.055z"/>
		</g>
		<g>
			<path style="fill:#D4DFFF;" d="M207.844,1077.864c10.036,8.072,14.287,21.095,19.39,32.921
				c5.103,11.826,12.878,24.182,25.395,27.214c13.573,3.289,27.828-5.676,41.457-2.631c11.039,2.466,18.863,12.171,24.695,21.862
				c5.832,9.691,10.903,20.343,19.912,27.183c13.984,10.617,33.401,9.242,50.794,6.84s36.325-5.057,51.496,3.783
				c18.459,10.756,25.34,35.247,43.665,46.23c7.795,4.672,16.999,6.437,26.062,7.11c27.002,2.006,54.606-5.249,77.132-20.272
				c-1.299-24.628-9.865-51.245-25.342-70.446s-38.727-32.544-63.354-33.854c-7.857-0.418-15.801,0.347-23.562-0.946
				c-32.612-5.43-49.561-43.29-79.783-56.695c-12.84-5.695-27.767-6.529-41.161-2.298c-13.107,4.14-24.81,12.916-38.479,14.368
				c-13.355,1.418-26.255-4.374-39.184-8.008C252.179,1063.254,232.077,1069.125,207.844,1077.864z"/>
			<path style="fill:#1C056D;" d="M736.46,1434.347c-0.474,0-0.906-0.319-1.029-0.8c-15.525-60.689-50.268-118.84-100.473-168.164
				c-43.141-42.384-98.544-79.08-164.671-109.069c-71.153-32.269-153.233-56.736-258.31-77c-0.577-0.111-0.954-0.669-0.842-1.245
				c0.112-0.577,0.672-0.95,1.245-0.843c105.246,20.297,187.477,44.813,258.786,77.152c66.354,30.093,121.963,66.93,165.282,109.489
				c50.482,49.596,85.422,108.088,101.043,169.152c0.146,0.569-0.198,1.147-0.767,1.293
				C736.636,1434.336,736.547,1434.347,736.46,1434.347z"/>
		</g>
		<path style="fill:#D4DFFF;" d="M778.27,1076.782c-15.504,2.993-32.246-1.209-44.499-11.168
			c-12.253-9.959-19.788-25.489-20.027-41.277c-0.181-11.995,3.599-23.671,7.724-34.936c1.411-3.853,2.891-7.879,2.38-11.951
			c-0.406-3.231-2.038-6.172-3.814-8.902c-6.677-10.264-15.983-19.184-19.503-30.911c-6.248-20.817,7.653-43.229,3.296-64.522
			c-1.518-7.42-5.176-14.2-7.785-21.311c-9.187-25.038-4.377-54.716,12.249-75.571c23.407,9.391,38.681,34.348,38.913,59.567
			c0.116,12.574-3.336,25.89,2.01,37.272c3.195,6.804,9.115,11.853,14.657,16.93c9.708,8.894,19.079,19.082,22.513,31.793
			c5.394,19.971-4.932,42.006,1.762,61.58c6.642,19.423,28.278,30.977,34.154,50.645c1.574,5.268,1.901,10.855,1.456,16.335
			c-0.684,8.429-3.458,17.131-9.806,22.719C804.064,1081.775,791.2,1074.286,778.27,1076.782z"/>
		<path style="fill:#1C056D;" d="M787.07,1439.576c-0.546,0-1.01-0.418-1.058-0.973c-4.592-53.958-3.333-109.183-2.115-162.589
			c1.685-73.876,3.426-150.268-10.388-223.897c-7.145-38.081-18.567-75.969-29.613-112.609
			c-15.367-50.973-31.257-103.682-35.8-157.561c-0.049-0.585,0.385-1.099,0.97-1.148c0.575-0.048,1.099,0.384,1.148,0.97
			c4.523,53.657,20.381,106.258,35.717,157.126c11.062,36.694,22.501,74.638,29.667,112.83
			c13.856,73.849,12.111,150.354,10.424,224.339c-1.216,53.35-2.475,108.516,2.108,162.36c0.05,0.585-0.384,1.099-0.969,1.148
			C787.131,1439.575,787.101,1439.576,787.07,1439.576z"/>
	</g>
	<g>
		<defs>
			<path id="XMLID_256_" d="M670.117,1779.337c0,0-98.217-331.888-82.401-340.672s403.537-9.133,403.537-9.133
				s-44.462,349.06-56.807,349.805C922.1,1780.081,702.813,1780.851,670.117,1779.337z"/>
		</defs>
		<use xlink:href="#XMLID_256_"  style="overflow:visible;fill:#1B3D9E;"/>
		<clipPath id="XMLID_00000016772881592229045170000007900541653817584049_">
			<use xlink:href="#XMLID_256_"  style="overflow:visible;"/>
		</clipPath>
		<path style="clip-path:url(#XMLID_00000016772881592229045170000007900541653817584049_);fill:#1C056D;" d="M765.84,1403.86
			c0,0-113.428,144.909-106.983,148.776c6.445,3.867,325.08,69.603,324.948,65.736c-0.132-3.867,32.401-188.84,32.401-188.84
			L765.84,1403.86z"/>
	</g>
</g>
<g>
	<g>
		<g>
			<rect x="1420.464" y="1494.29" style="fill:#1B3D9E;" width="277.43" height="235.767"/>
			<path style="fill:#1C056D;" d="M1789.361,1780.207h-453.665c-11.517,0-20.853-9.336-20.853-20.853v-8.443
				c0-11.517,9.336-20.853,20.853-20.853h453.665c11.517,0,20.853,9.336,20.853,20.853v8.443
				C1810.214,1770.871,1800.878,1780.207,1789.361,1780.207z"/>
		</g>
		<path style="fill:#6880E4;" d="M862.117,672.05c0.588-1.172,1.78-1.906,3.091-1.914c55.951-0.377,1341.225-8.93,1398.163,0.013
			c22.448,3.526,16.867,858.083,0,890.73c-12.405,24.01-1384.11,2.897-1400.045,0C843.678,1557.307,833.947,728.189,862.117,672.05z
			"/>
		<g>
			<defs>
				<path id="XMLID_254_" d="M895.945,711.361c0,0-4.398,729.651,13.193,731.645c17.591,1.994,1299.505,9.968,1310.5,0
					s15.392-737.626,0-737.626C2204.246,705.38,895.945,711.361,895.945,711.361z"/>
			</defs>
			<use xlink:href="#XMLID_254_"  style="overflow:visible;fill:#D4DFFF;"/>
			<clipPath id="XMLID_00000120519457685885321070000008411037097382748548_">
				<use xlink:href="#XMLID_254_"  style="overflow:visible;"/>
			</clipPath>

				<polygon style="opacity:0.46;clip-path:url(#XMLID_00000120519457685885321070000008411037097382748548_);fill:#6880E4;" points="
				1737.876,688.827 1239.683,1462.302 871.433,1462.302 895.945,711.361 			"/>

				<polygon style="opacity:0.46;clip-path:url(#XMLID_00000120519457685885321070000008411037097382748548_);fill:#6880E4;" points="
				1353.418,1468.615 1832.246,684.679 2042.369,684.679 1581.046,1464.512 			"/>

				<polygon style="opacity:0.46;clip-path:url(#XMLID_00000120519457685885321070000008411037097382748548_);fill:#6880E4;" points="
				2131.233,687.589 1667.639,1469.288 1954.81,1465.653 2263.21,898.032 2256.995,692.521 			"/>
		</g>
	</g>

		<ellipse transform="matrix(0.9239 -0.3827 0.3827 0.9239 -461.629 712.1032)" style="fill:#1B3D9E;" cx="1559.179" cy="1516.435" rx="33.717" ry="33.717"/>
	<g>
		<path style="fill:#FFFFFF;" d="M1241.167,1026.614c1.654-7.715,4.891-13.576,9.718-17.575c4.82-3.993,10.131-6.061,15.921-6.203
			c5.79-0.136,11.301,1.589,16.541,5.169c5.234,3.586,8.956,9.098,11.165,16.541c0.272,17.924,0.414,35.635,0.414,53.139
			c0,17.511,0.271,35.086,0.826,52.726c12.128,0,23.914-0.136,35.358-0.414c11.437-0.271,22.396-0.413,32.876-0.413
			c7.444,2.21,12.956,5.725,16.541,10.545c3.58,4.827,5.306,9.86,5.17,15.094c-0.143,5.24-2.211,10.067-6.203,14.474
			c-4.001,4.413-9.861,7.444-17.576,9.098c-10.752,0-21.503,0.071-32.255,0.207c-10.752,0.142-21.504,0.071-32.255-0.207
			c0.548,13.789,0.891,28.741,1.034,44.869c0.135,16.128,0.342,31.086,0.62,44.869c-0.556,9.098-3.515,15.857-8.891,20.263
			c-5.377,4.413-11.372,6.617-17.989,6.617c-6.616,0-12.89-2.274-18.816-6.823c-5.932-4.549-9.446-11.23-10.546-20.057
			c-0.278-14.06-0.071-28.876,0.621-44.455c0.685-15.572,0.756-30.395,0.207-44.455c-11.856-0.271-24.605-0.892-38.252-1.861
			c-13.647-0.963-26.88-2.959-39.699-5.996c-12.82-3.03-24.607-7.301-35.358-12.819c-10.752-5.512-19.436-12.82-26.052-21.918
			c-6.068-8.542-9.512-17.782-10.339-27.707s0.135-20.121,2.894-30.602c2.753-10.474,6.889-21.09,12.407-31.842
			c5.511-10.752,11.507-21.09,17.988-31.015c6.475-9.925,12.956-19.229,19.436-27.914c6.475-8.684,12.199-16.335,17.162-22.951
			c11.023-14.887,22.331-29.361,33.91-43.421c11.578-14.06,23.157-28.256,34.737-42.594c6.06-4.962,12.335-7.508,18.816-7.651
			c6.475-0.136,12.057,1.448,16.749,4.756c4.685,3.308,7.922,7.999,9.718,14.06c1.789,6.067,1.305,12.819-1.447,20.263
			c-9.376,11.579-20.406,24.747-33.083,39.492c-12.684,14.752-25.161,30.188-37.426,46.316
			c-12.271,16.128-23.436,32.534-33.496,49.211c-10.067,16.684-17.162,32.876-21.297,48.59c-1.655,5.518-1.034,10.274,1.86,14.267
			c2.894,4,7.166,7.308,12.82,9.925c5.647,2.623,12.198,4.756,19.643,6.41c7.444,1.654,14.816,2.895,22.124,3.722
			c7.301,0.827,14.06,1.448,20.263,1.861c6.203,0.413,10.959,0.762,14.267,1.034c-0.556-17.369-0.827-34.802-0.827-52.313
			C1241.167,1061.422,1241.167,1043.982,1241.167,1026.614z"/>
		<path style="fill:#FFFFFF;" d="M1441.731,1217.254c-3.585-11.851-7.172-26.673-10.751-44.455
			c-3.587-17.782-6.274-37.012-8.065-57.688c-1.796-20.677-2.416-41.903-1.86-63.684c0.548-21.775,2.958-42.594,7.236-62.444
			c4.271-19.85,10.817-37.903,19.643-54.173c8.821-16.264,20.536-29.083,35.151-38.459c18.196-11.579,36.94-19.85,56.241-24.812
			c19.294-4.962,38.181-6.888,56.654-5.79c18.466,1.105,36.042,5.034,52.726,11.786c16.677,6.759,31.287,15.921,43.834,27.5
			c12.542,11.579,22.603,25.504,30.189,41.767c7.579,16.27,11.644,34.466,12.199,54.587c0.272,19.023,0.963,39.357,2.068,60.996
			c1.098,21.646,1.169,43.357,0.206,65.132c-0.97,21.782-3.793,42.801-8.478,63.064c-4.691,20.263-12.406,38.53-23.158,54.793
			c-9.097,13.789-21.297,24.954-36.598,33.496c-15.3,8.549-31.842,14.545-49.624,17.989c-17.783,3.444-36.048,4.342-54.794,2.688
			c-18.751-1.654-36.326-5.854-52.726-12.613c-16.406-6.752-30.88-15.921-43.421-27.5
			C1455.856,1247.855,1446.965,1233.795,1441.731,1217.254z M1510.793,943.907c-7.173,5.518-13.583,13.582-19.23,24.192
			c-5.653,10.616-8.891,21.853-9.718,33.703c-1.105,16.542-2.209,33.289-3.309,50.245c-1.104,16.955-1.518,33.703-1.241,50.244
			c0.272,16.542,1.655,32.812,4.136,48.797c2.481,15.992,7.029,31.293,13.647,45.903c4.135,9.653,10.267,17.782,18.402,24.398
			c8.128,6.616,17.226,11.721,27.293,15.301c10.06,3.586,20.741,5.583,32.049,5.996c11.301,0.414,22.331-0.685,33.083-3.308
			c10.752-2.617,20.884-6.824,30.395-12.613c9.51-5.789,17.575-13.233,24.191-22.331c4.685-5.79,8.478-13.853,11.373-24.192
			c2.894-10.339,5.026-21.846,6.41-34.53c1.376-12.677,2.203-25.775,2.481-39.286c0.272-13.505,0.272-26.324,0-38.459
			c-0.278-12.128-0.556-22.951-0.827-32.463c-0.278-9.511-0.413-16.471-0.413-20.884c0.272-13.233-1.861-25.568-6.41-37.012
			c-4.549-11.437-10.823-21.432-18.817-29.981c-7.999-8.542-17.44-15.436-28.327-20.677c-10.894-5.233-22.609-8.27-35.15-9.098
			c-12.548-0.827-25.639,0.827-39.286,4.962C1537.879,926.952,1524.297,933.982,1510.793,943.907z"/>
		<path style="fill:#FFFFFF;" d="M1930.117,1026.614c1.654-7.715,4.891-13.576,9.718-17.575c4.82-3.993,10.131-6.061,15.921-6.203
			c5.79-0.136,11.301,1.589,16.541,5.169c5.234,3.586,8.956,9.098,11.165,16.541c0.272,17.924,0.414,35.635,0.414,53.139
			c0,17.511,0.271,35.086,0.826,52.726c12.128,0,23.914-0.136,35.358-0.414c11.437-0.271,22.396-0.413,32.876-0.413
			c7.444,2.21,12.956,5.725,16.541,10.545c3.58,4.827,5.305,9.86,5.17,15.094c-0.142,5.24-2.21,10.067-6.203,14.474
			c-4.001,4.413-9.861,7.444-17.576,9.098c-10.752,0-21.503,0.071-32.256,0.207c-10.752,0.142-21.504,0.071-32.255-0.207
			c0.549,13.789,0.891,28.741,1.034,44.869c0.135,16.128,0.342,31.086,0.62,44.869c-0.556,9.098-3.515,15.857-8.891,20.263
			c-5.377,4.413-11.372,6.617-17.989,6.617c-6.616,0-12.89-2.274-18.815-6.823c-5.932-4.549-9.446-11.23-10.546-20.057
			c-0.278-14.06-0.071-28.876,0.621-44.455c0.685-15.572,0.756-30.395,0.207-44.455c-11.856-0.271-24.605-0.892-38.252-1.861
			c-13.647-0.963-26.88-2.959-39.699-5.996c-12.82-3.03-24.606-7.301-35.357-12.819c-10.752-5.512-19.436-12.82-26.052-21.918
			c-6.068-8.542-9.512-17.782-10.339-27.707c-0.828-9.925,0.135-20.121,2.894-30.602c2.753-10.474,6.889-21.09,12.407-31.842
			c5.511-10.752,11.507-21.09,17.988-31.015c6.475-9.925,12.956-19.229,19.436-27.914c6.475-8.684,12.199-16.335,17.162-22.951
			c11.023-14.887,22.331-29.361,33.91-43.421c11.578-14.06,23.157-28.256,34.737-42.594c6.06-4.962,12.335-7.508,18.816-7.651
			c6.475-0.136,12.057,1.448,16.749,4.756c4.684,3.308,7.922,7.999,9.718,14.06c1.789,6.067,1.305,12.819-1.447,20.263
			c-9.376,11.579-20.406,24.747-33.083,39.492c-12.684,14.752-25.161,30.188-37.426,46.316
			c-12.271,16.128-23.436,32.534-33.496,49.211c-10.067,16.684-17.162,32.876-21.297,48.59c-1.655,5.518-1.034,10.274,1.86,14.267
			c2.894,4,7.166,7.308,12.82,9.925c5.647,2.623,12.198,4.756,19.643,6.41c7.443,1.654,14.816,2.895,22.124,3.722
			c7.301,0.827,14.06,1.448,20.263,1.861c6.203,0.413,10.959,0.762,14.267,1.034c-0.556-17.369-0.828-34.802-0.828-52.313
			C1930.117,1061.422,1930.117,1043.982,1930.117,1026.614z"/>
	</g>
	<g>
		<path style="opacity:0.54;fill:#1B3D9E;" d="M1160.5,1566.556l-132.587-372.757l33.668,5.41c1.901,0.305,3.488,1.616,4.147,3.426
			l132.691,364.275c0.03,0.081-0.031,0.167-0.118,0.166L1160.5,1566.556z"/>
		<g>
			<path style="fill:#FC476A;" d="M734.25,1582.39c5.599-0.992,280.683-391.447,293.663-388.591
				c12.98,2.856,164.139,461.73,158.523,460.838C1180.82,1653.745,720.339,1584.854,734.25,1582.39z"/>
			<g>
				<path style="fill:#FFFFFF;" d="M985.145,1519.239c-2.137,1.915-4.304,3.155-6.506,3.72c-2.203,0.568-4.313,0.55-6.33-0.055
					c-2.016-0.601-3.844-1.736-5.48-3.405c-1.636-1.666-2.876-3.837-3.719-6.506c1.338-16.404,2.365-33.072,3.082-50
					c0.716-16.926,1.629-33.754,2.737-50.479c1.104-16.725,2.701-33.194,4.786-49.413c2.08-16.217,5.16-31.819,9.23-46.806
					c0.331-1.215,1.455-2.304,3.371-3.267c1.912-0.964,4.239-1.651,6.981-2.06c2.74-0.41,5.723-0.57,8.95-0.481
					c3.224,0.09,6.331,0.478,9.321,1.164c2.988,0.686,5.644,1.708,7.964,3.06c2.32,1.355,4.013,3.103,5.082,5.244
					c1.734,2.388,2.771,6.497,3.113,12.325c0.342,5.83,0.21,12.851-0.388,21.064c-0.602,8.216-1.697,17.337-3.29,27.363
					c-1.593,10.029-3.477,20.329-5.648,30.897c-2.174,10.571-4.562,21.177-7.166,31.818c-2.608,10.644-5.367,20.696-8.277,30.163
					c-2.913,9.467-5.83,18.087-8.755,25.861c-2.925,7.775-5.754,14.052-8.483,18.828
					C985.698,1518.413,985.505,1518.735,985.145,1519.239z M956.669,1581.474c-3.014-2.311-5.441-4.984-7.282-8.023
					c-1.842-3.039-2.901-6.131-3.175-9.271c-0.277-3.143,0.385-6.207,1.988-9.191c1.601-2.986,4.268-5.59,8.002-7.813
					c5.144-3.128,10.297-4.316,15.459-3.565c5.163,0.747,9.135,3.88,11.924,9.393c2.62,4.781,3.876,9.944,3.771,15.492
					c-0.108,5.545-2.523,10.338-7.249,14.376c-3.452,3.113-7.352,4.395-11.701,3.845
					C964.057,1586.166,960.142,1584.418,956.669,1581.474z"/>
			</g>
		</g>
	</g>
</g>
<g>
	<g>
		<defs>
			<path id="XMLID_258_" d="M2508.607,1778.716h-332.875c-6.671,0-12.08-5.408-12.08-12.079v-388.825
				c0-6.671,5.408-12.079,12.08-12.079h332.875c6.671,0,12.079,5.408,12.079,12.079v388.825
				C2520.687,1773.308,2515.278,1778.716,2508.607,1778.716z"/>
		</defs>
		<use xlink:href="#XMLID_258_"  style="overflow:visible;fill:#1B3D9E;"/>
		<clipPath id="XMLID_00000052088065393394789010000004285159221766759602_">
			<use xlink:href="#XMLID_258_"  style="overflow:visible;"/>
		</clipPath>
		<path style="clip-path:url(#XMLID_00000052088065393394789010000004285159221766759602_);fill:#1C056D;" d="M2530.737,1424.211
			c0,0-139.84,196.902-392.923,251.399v120.522h401.74C2539.553,1796.132,2550.042,1431.264,2530.737,1424.211z"/>
	</g>
	<g>
		<defs>
			<path id="XMLID_255_" d="M2258.027,1365.732c0,0-4.738-339.969,1.579-343.918c6.317-3.948,54.486-7.897,58.435,1.579
				c3.948,9.476,0,342.338,0,342.338H2258.027z"/>
		</defs>
		<use xlink:href="#XMLID_255_"  style="overflow:visible;fill:#FC476A;"/>
		<clipPath id="XMLID_00000106860428732711230200000015722517137469426079_">
			<use xlink:href="#XMLID_255_"  style="overflow:visible;"/>
		</clipPath>
		<polygon style="clip-path:url(#XMLID_00000106860428732711230200000015722517137469426079_);fill:#D40221;" points="
			2299.335,1070.31 2299.335,1372.44 2276.781,1372.44 2276.781,1070.918 		"/>
		<path style="clip-path:url(#XMLID_00000106860428732711230200000015722517137469426079_);fill:#D4DFFF;" d="M2246.958,1083.368
			c0,0,70.087-5.317,79.857-0.432c0,0-0.489-69.856-4.397-71.322c-3.908-1.466-70.833-1.843-72.299,5.918
			C2248.655,1025.292,2246.958,1083.368,2246.958,1083.368z"/>
	</g>
	<g>
		<defs>
			<path id="XMLID_257_" d="M2492.85,1365.732h-139.482V875.058c0-2.063,1.672-3.735,3.735-3.735h132.013
				c2.063,0,3.735,1.672,3.735,3.735V1365.732z"/>
		</defs>
		<use xlink:href="#XMLID_257_"  style="overflow:visible;fill:#D4DFFF;"/>
		<clipPath id="XMLID_00000101806956192459962220000004425627714815313803_">
			<use xlink:href="#XMLID_257_"  style="overflow:visible;"/>
		</clipPath>

			<rect x="2342.17" y="853.251" style="opacity:0.46;clip-path:url(#XMLID_00000101806956192459962220000004425627714815313803_);fill:#6880E4;" width="47.848" height="530.476"/>

			<rect x="2353.367" y="909.253" style="clip-path:url(#XMLID_00000101806956192459962220000004425627714815313803_);fill:#6880E4;" width="17.575" height="6.122"/>

			<rect x="2353.367" y="937.436" style="clip-path:url(#XMLID_00000101806956192459962220000004425627714815313803_);fill:#6880E4;" width="17.575" height="6.122"/>

			<rect x="2353.367" y="965.62" style="clip-path:url(#XMLID_00000101806956192459962220000004425627714815313803_);fill:#6880E4;" width="17.575" height="6.122"/>

			<rect x="2353.367" y="993.804" style="clip-path:url(#XMLID_00000101806956192459962220000004425627714815313803_);fill:#6880E4;" width="17.575" height="6.122"/>

			<rect x="2353.367" y="1021.988" style="clip-path:url(#XMLID_00000101806956192459962220000004425627714815313803_);fill:#6880E4;" width="17.575" height="6.122"/>

			<rect x="2353.367" y="1050.172" style="clip-path:url(#XMLID_00000101806956192459962220000004425627714815313803_);fill:#6880E4;" width="17.575" height="6.122"/>

			<rect x="2353.367" y="1078.355" style="clip-path:url(#XMLID_00000101806956192459962220000004425627714815313803_);fill:#6880E4;" width="17.575" height="6.122"/>

			<rect x="2353.367" y="1106.539" style="clip-path:url(#XMLID_00000101806956192459962220000004425627714815313803_);fill:#6880E4;" width="17.575" height="6.122"/>

			<rect x="2353.367" y="1134.723" style="clip-path:url(#XMLID_00000101806956192459962220000004425627714815313803_);fill:#6880E4;" width="17.575" height="6.122"/>

			<rect x="2353.367" y="1162.907" style="clip-path:url(#XMLID_00000101806956192459962220000004425627714815313803_);fill:#6880E4;" width="17.575" height="6.122"/>

			<rect x="2353.367" y="1191.09" style="clip-path:url(#XMLID_00000101806956192459962220000004425627714815313803_);fill:#6880E4;" width="17.575" height="6.122"/>

			<rect x="2353.367" y="1219.274" style="clip-path:url(#XMLID_00000101806956192459962220000004425627714815313803_);fill:#6880E4;" width="17.575" height="6.122"/>

			<rect x="2353.367" y="1247.458" style="clip-path:url(#XMLID_00000101806956192459962220000004425627714815313803_);fill:#6880E4;" width="17.575" height="6.122"/>

			<rect x="2353.367" y="1275.642" style="clip-path:url(#XMLID_00000101806956192459962220000004425627714815313803_);fill:#6880E4;" width="17.575" height="6.122"/>

			<rect x="2353.367" y="1303.826" style="clip-path:url(#XMLID_00000101806956192459962220000004425627714815313803_);fill:#6880E4;" width="17.575" height="6.122"/>

			<rect x="2353.367" y="1332.01" style="clip-path:url(#XMLID_00000101806956192459962220000004425627714815313803_);fill:#6880E4;" width="17.575" height="6.122"/>
		<path style="opacity:0.17;clip-path:url(#XMLID_00000101806956192459962220000004425627714815313803_);fill:#6880E4;" d="
			M2462.678,852.669c-38.705,33.157-52.279,92.459-31.851,139.151c9.722,22.221,26.339,42.04,29.456,66.094
			c3.024,23.335-7.239,46.032-15.355,68.117c-7.999,21.764-14.156,44.757-12.531,67.888c2.657,37.828,25.86,73.216,22.07,110.947
			c-3.641,36.24-31.828,67.792-30.205,104.178c0.465,0-0.488,1.602-0.024,1.602h90.62l-0.043-560.298l11.148,0.111L2462.678,852.669
			z"/>
	</g>
</g>
<path style="fill:#1C056D;" d="M2763.826,1784.458H474.319c-2.348,0-4.251-1.903-4.251-4.251s1.903-4.251,4.251-4.251h2289.507
	c2.348,0,4.251,1.903,4.251,4.251S2766.174,1784.458,2763.826,1784.458z"/>
<g>
	<g>
		<g>
			<defs>
				<path id="XMLID_260_" d="M1172.415,613.039l-52.977,6.853c-29.168-13.666-57.412-22.516-83.744-19.765
					c-26.452,2.764-41.648,30.459-35.121,49.107c5.74,16.401,53.334,33.221,73.864,33.616c20.53,0.395,51.72-4.343,63.169-14.501
					c0.017-0.015,0.028-0.033,0.045-0.048h34.763V613.039z"/>
			</defs>
			<use xlink:href="#XMLID_260_"  style="overflow:visible;fill:#FE8E9C;"/>
			<clipPath id="XMLID_00000054240140231469628260000001344103160364172980_">
				<use xlink:href="#XMLID_260_"  style="overflow:visible;"/>
			</clipPath>
			<path style="clip-path:url(#XMLID_00000054240140231469628260000001344103160364172980_);fill:#E57492;" d="M1056.001,685.373
				c0,0,10.194-19.925,9.731-35.216c-0.463-15.291-21.48-39.119-21.48-39.119l-17.443,0.891c0,0,5.688,55.836,0.643,65.683
				c-5.045,9.846,0,0,0,0L1056.001,685.373z"/>
		</g>
		<path style="fill:#E57492;" d="M1137.607,668.35c0,0,10.494-16.108-13.895-32.368c0,0,21.752,3.516,29.223,18.017
			c7.471,14.502,5.932,14.721,5.932,14.721L1137.607,668.35z"/>
	</g>
	<g>
		<defs>
			<path id="XMLID_261_" d="M1119.438,619.893c0,0-16.98,1.507-20.264,1.587c-11.893,0.288-23.811,0.943-23.811,0.943
				s-7.408-24.048-18.303-19.12c-16,7.238,2.288,18.466,2.288,18.466s-28.435-4.739-31.213-4.903
				c-2.778-0.163,21.285,50.592-4.386,66.008c-25.671,15.416-54.266,7.292-57.84-32.676s37.369-78.312,75.063-77.012
				C1078.665,574.485,1119.438,619.893,1119.438,619.893z"/>
		</defs>
		<use xlink:href="#XMLID_261_"  style="overflow:visible;fill:#1B3D9E;"/>
		<clipPath id="XMLID_00000021113846051892291190000001949229140711661706_">
			<use xlink:href="#XMLID_261_"  style="overflow:visible;"/>
		</clipPath>
		<path style="clip-path:url(#XMLID_00000021113846051892291190000001949229140711661706_);fill:#1C056D;" d="M1001.925,690.177
			c0,0,19.542-16.37,18.577-34.465c-0.965-18.094-6.798-46.421-3.932-48.301c2.866-1.88,32.966,10.134,32.966,10.134
			s-5.542-8.125,4.114-12.285c9.656-4.16,0,0,0,0s15.298,16.747,14.217,18.504c-1.082,1.757-36.229-1.757-36.229-1.757
			s13.789,33.864,3.92,53.871C1025.689,695.885,1001.925,690.177,1001.925,690.177"/>
	</g>
	<path style="fill:#F6F9FF;" d="M1118.323,668.721c0,0-8.09-2.325-8.09-16.369c0-14.045,0-1.404,0-1.404
		S1118.454,665.894,1118.323,668.721z"/>
	<path style="fill:#E57492;" d="M1052.548,651.59c0,0,32.265,17.548,35.293,15.685c3.028-1.863-2.446-21.547-2.446-21.547
		s3.494-0.233,4.309,2.912c0.815,3.145,5.358,21.663,0,22.013C1084.347,671.002,1057.786,657.918,1052.548,651.59z"/>
	<g>
		<defs>
			<path id="XMLID_262_" d="M1239.141,984.943c0,0-7.914,10.644-10.528,15.91c-2.614,5.265-3.456,31.6-2.907,31.51
				c0.548-0.09,6.398-0.4,7.61-3.884l6.47-22.232c0,0,0.445,23.839-0.345,25.527c-0.79,1.689-14.516,29.05-13.307,29.918
				c1.209,0.868,6.406,4.036,10.457-2.782c4.051-6.819,13.626-24.472,14.805-27.292c1.178-2.819-18.757,37.205-17.957,37.523
				c0.801,0.318,5.908,2.966,7.932,0.357s19.867-31.018,20.455-33.303c0.588-2.286-11.121,27.219-10.51,27.206
				c0.611-0.013,2.947,3.019,6.139-1.007c3.192-4.026,13.916-25.663,14.43-26.798c0.514-1.135,0.352-14.918,0.352-14.918
				s2.674,16.188,2.049,18.297c-0.625,2.109-5.538,14.368-3.259,14.797c1.733,0.326,4.741-2.998,7.109-7.343
				c2.367-4.344,5.375-10.851,5.149-17.031c-0.226-6.18-11.607-40.774-11.607-40.774L1239.141,984.943z"/>
		</defs>
		<use xlink:href="#XMLID_262_"  style="overflow:visible;fill:#FE8E9C;"/>
		<clipPath id="XMLID_00000064314899907640001270000018329849996634731696_">
			<use xlink:href="#XMLID_262_"  style="overflow:visible;"/>
		</clipPath>
		<path style="clip-path:url(#XMLID_00000064314899907640001270000018329849996634731696_);fill:#E57492;" d="M1222.652,1010.091
			c0.496,1.802,24.75-11.654,57.791-6.488c0,0-4.445-20.065-8.05-21.867c-3.604-1.802-31.959-1.802-36.285,0.24
			S1220.369,1001.8,1222.652,1010.091z"/>
	</g>
	<g>
		<path style="fill:#FC476A;" d="M1535.624,590.093c0-2.122-1.52-3.938-3.607-4.314l-171.893-30.913
			c-144.194-12.333-187.709,51.493-187.709,51.493v61.969l16.868-0.067c12.489,36.472,48.024,140.992,51.641,159.98
			c4.396,23.081-23.969,162.063-21.03,163.905c2.939,1.842,66.618,9.679,72.497,8.7c5.878-0.98,35.268-154.038,33.309-172.538
			c-1.504-14.202-5.896-111.595-16.718-160.523l226.642-0.902V590.093z"/>
		<path style="fill:#D40221;" d="M1308.982,667.784c0,0-4.294-22.728-23.357-38.505c0,0,101.892,20.378,131.474,22.35
			s118.526-5.852,118.526-5.852v21.104L1308.982,667.784z"/>
	</g>
	<path style="fill:#E57492;" d="M2046.743,728.963c0,0,35.826-8.509,36.722-6.867c0.896,1.642,5.971,18.062,4.031,24.033
		c-1.941,5.971-37.17,18.809-37.17,18.809L2046.743,728.963z"/>
	<g>
		<g>
			<defs>
				<path id="XMLID_264_" d="M2074.655,620.017c0,0-339.356-27.845-409.837-42.637c-70.482-14.792-129.194,17.363-129.194,17.363
					v72.139c0,0,182.367,155.374,264.143,157.418c81.776,2.044,252.824-43.614,254.187-51.11s0-51.792-6.814-54.517
					c-6.815-2.726-233.062,23.17-237.151,18.4c-2.656-3.098-40.962-41.557-74.583-70.19h339.25V620.017z"/>
			</defs>
			<use xlink:href="#XMLID_264_"  style="overflow:visible;fill:#1B3D9E;"/>
			<clipPath id="XMLID_00000041291990157093482840000003325512972709241479_">
				<use xlink:href="#XMLID_264_"  style="overflow:visible;"/>
			</clipPath>
			<path style="clip-path:url(#XMLID_00000041291990157093482840000003325512972709241479_);fill:#1C056D;" d="M1816.436,783.356
				c-1.2,0-2.157-0.042-2.923-0.126c-0.186-0.021-0.379-0.048-0.581-0.084c-0.867-0.151-1.447-0.977-1.296-1.844
				c0.151-0.868,0.978-1.452,1.845-1.296c0.134,0.023,0.263,0.042,0.385,0.056c1.007,0.112,2.587,0.135,4.596,0.072
				c0.887-0.028,1.616,0.662,1.645,1.542c0.027,0.88-0.663,1.616-1.543,1.644C1817.791,783.344,1817.081,783.356,1816.436,783.356z
				 M1823.841,783.034c-0.829,0-1.529-0.642-1.589-1.482c-0.062-0.878,0.601-1.641,1.479-1.702c1.617-0.114,3.385-0.256,5.289-0.426
				c0.865-0.079,1.651,0.568,1.729,1.446c0.078,0.877-0.569,1.651-1.446,1.729c-1.926,0.172-3.713,0.316-5.35,0.431
				C1823.916,783.032,1823.879,783.034,1823.841,783.034z M1834.47,782.099c-0.809,0-1.501-0.612-1.584-1.434
				c-0.089-0.876,0.55-1.658,1.426-1.747c1.686-0.171,3.45-0.356,5.288-0.557c0.873-0.093,1.663,0.537,1.758,1.413
				c0.095,0.875-0.537,1.662-1.412,1.757c-1.848,0.201-3.62,0.388-5.313,0.559C1834.578,782.097,1834.523,782.099,1834.47,782.099z
				 M1808.157,781.498c-0.207,0-0.418-0.041-0.621-0.127c-1.439-0.61-3.098-1.384-4.929-2.302c-0.787-0.395-1.105-1.353-0.711-2.14
				c0.395-0.788,1.354-1.104,2.139-0.711c1.771,0.888,3.368,1.634,4.745,2.217c0.811,0.343,1.189,1.279,0.846,2.09
				C1809.368,781.132,1808.778,781.498,1808.157,781.498z M1845.065,780.947c-0.799,0-1.488-0.599-1.582-1.412
				c-0.101-0.875,0.526-1.665,1.401-1.766c1.71-0.198,3.473-0.405,5.283-0.622c0.874-0.108,1.667,0.519,1.772,1.393
				c0.104,0.874-0.52,1.668-1.394,1.773c-1.814,0.217-3.581,0.425-5.297,0.623C1845.188,780.944,1845.126,780.947,1845.065,780.947z
				 M1855.643,779.68c-0.793,0-1.48-0.591-1.58-1.398c-0.108-0.874,0.512-1.67,1.386-1.778c1.725-0.214,3.484-0.435,5.278-0.663
				c0.87-0.113,1.672,0.507,1.782,1.38c0.111,0.873-0.507,1.671-1.38,1.783c-1.798,0.228-3.561,0.45-5.288,0.664
				C1855.774,779.676,1855.708,779.68,1855.643,779.68z M1866.205,778.337c-0.789,0-1.475-0.585-1.579-1.389
				c-0.113-0.873,0.503-1.673,1.376-1.786c1.733-0.225,3.491-0.456,5.275-0.692c0.873-0.113,1.675,0.499,1.789,1.371
				c0.116,0.873-0.498,1.674-1.371,1.79c-1.786,0.236-3.548,0.467-5.283,0.693C1866.343,778.333,1866.273,778.337,1866.205,778.337z
				 M1876.762,776.94c-0.786,0-1.471-0.581-1.578-1.382c-0.117-0.873,0.495-1.675,1.367-1.792l5.272-0.714
				c0.869-0.125,1.676,0.492,1.795,1.364c0.118,0.873-0.492,1.676-1.365,1.795l-5.276,0.715
				C1876.904,776.936,1876.832,776.94,1876.762,776.94z M1798.594,776.763c-0.257,0-0.518-0.063-0.76-0.193
				c-1.483-0.805-3.047-1.677-4.687-2.61c-0.765-0.436-1.032-1.409-0.597-2.174c0.435-0.765,1.407-1.034,2.175-0.597
				c1.619,0.921,3.164,1.782,4.63,2.578c0.773,0.42,1.061,1.388,0.641,2.162C1799.707,776.461,1799.159,776.763,1798.594,776.763z
				 M1887.31,775.502c-0.784,0-1.467-0.578-1.577-1.377c-0.12-0.872,0.489-1.677,1.361-1.797l5.27-0.731
				c0.868-0.117,1.678,0.487,1.799,1.359c0.121,0.872-0.487,1.678-1.358,1.799l-5.274,0.731
				C1887.455,775.497,1887.382,775.502,1887.31,775.502z M1897.852,774.031c-0.782,0-1.465-0.576-1.577-1.372
				c-0.122-0.872,0.485-1.678,1.356-1.801l5.267-0.746c0.864-0.131,1.679,0.482,1.803,1.354c0.124,0.872-0.481,1.679-1.354,1.803
				l-5.271,0.746C1898,774.026,1897.926,774.031,1897.852,774.031z M1908.389,772.532c-0.78,0-1.462-0.573-1.576-1.368
				c-0.125-0.872,0.48-1.679,1.353-1.804l5.265-0.758c0.879-0.123,1.681,0.478,1.807,1.35c0.126,0.871-0.479,1.68-1.35,1.806
				l-5.271,0.759C1908.54,772.527,1908.464,772.532,1908.389,772.532z M1789.322,771.498c-0.274,0-0.553-0.071-0.807-0.221
				c-1.482-0.873-3.014-1.786-4.59-2.738c-0.754-0.455-0.997-1.435-0.542-2.189c0.455-0.753,1.437-0.997,2.188-0.541
				c1.566,0.945,3.088,1.853,4.561,2.72c0.759,0.447,1.012,1.424,0.565,2.183C1790.4,771.217,1789.869,771.498,1789.322,771.498z
				 M1918.921,771.01c-0.779,0-1.461-0.571-1.576-1.365c-0.126-0.871,0.478-1.68,1.349-1.807l5.265-0.768
				c0.879-0.127,1.681,0.475,1.809,1.346c0.128,0.872-0.475,1.681-1.346,1.809l-5.269,0.769
				C1919.074,771.005,1918.997,771.01,1918.921,771.01z M1929.451,769.467c-0.778,0-1.459-0.57-1.575-1.362
				c-0.128-0.871,0.475-1.681,1.346-1.809l5.264-0.777c0.869-0.13,1.682,0.473,1.811,1.343c0.129,0.871-0.473,1.682-1.344,1.811
				l-5.268,0.777C1929.606,769.462,1929.528,769.467,1929.451,769.467z M1939.999,767.905c-0.776,0-1.457-0.568-1.575-1.359
				c-0.129-0.871,0.472-1.682,1.343-1.812l5.268-0.787c0.879-0.133,1.683,0.47,1.813,1.341c0.13,0.871-0.471,1.682-1.341,1.813
				l-5.271,0.787C1940.156,767.9,1940.077,767.905,1939.999,767.905z M1950.523,766.33c-0.776,0-1.456-0.567-1.574-1.357
				c-0.131-0.871,0.469-1.683,1.34-1.814l5.261-0.792c0.874-0.133,1.684,0.468,1.814,1.338c0.132,0.871-0.468,1.683-1.338,1.814
				l-5.265,0.794C1950.682,766.324,1950.603,766.33,1950.523,766.33z M1780.197,765.996c-0.284,0-0.573-0.076-0.834-0.236
				c-1.479-0.91-2.991-1.848-4.534-2.813c-0.747-0.467-0.974-1.45-0.507-2.197c0.465-0.746,1.447-0.975,2.196-0.507
				c1.537,0.96,3.044,1.894,4.517,2.801c0.75,0.462,0.983,1.444,0.521,2.193C1781.256,765.727,1780.733,765.996,1780.197,765.996z
				 M1961.049,764.741c-0.774,0-1.454-0.565-1.574-1.355c-0.132-0.871,0.467-1.684,1.337-1.815l5.26-0.8
				c0.868-0.127,1.684,0.465,1.816,1.336c0.133,0.871-0.466,1.684-1.336,1.817l-5.262,0.8
				C1961.209,764.735,1961.128,764.741,1961.049,764.741z M1971.57,763.138c-0.774,0-1.453-0.565-1.574-1.354
				c-0.133-0.87,0.465-1.684,1.335-1.816l5.259-0.806c0.876-0.132,1.685,0.464,1.818,1.333c0.133,0.871-0.464,1.684-1.334,1.818
				l-5.261,0.806C1971.731,763.132,1971.65,763.138,1971.57,763.138z M1982.091,761.523c-0.773,0-1.452-0.564-1.574-1.352
				c-0.134-0.871,0.464-1.685,1.334-1.818l5.259-0.811c0.865-0.132,1.685,0.462,1.818,1.333c0.135,0.87-0.462,1.684-1.332,1.819
				l-5.261,0.811C1982.253,761.517,1982.172,761.523,1982.091,761.523z M1771.164,760.354c-0.291,0-0.586-0.08-0.851-0.247
				c-1.476-0.934-2.977-1.889-4.498-2.864c-0.742-0.475-0.958-1.461-0.483-2.203c0.476-0.741,1.462-0.959,2.202-0.482
				c1.518,0.971,3.013,1.923,4.484,2.854c0.744,0.471,0.966,1.456,0.494,2.2C1772.21,760.092,1771.692,760.354,1771.164,760.354z
				 M1992.611,759.897c-0.772,0-1.451-0.563-1.573-1.35c-0.135-0.87,0.461-1.685,1.331-1.819l5.259-0.817
				c0.876-0.135,1.686,0.461,1.82,1.33c0.136,0.87-0.46,1.685-1.33,1.82l-5.261,0.817
				C1992.774,759.891,1992.692,759.897,1992.611,759.897z M2003.13,758.26c-0.772,0-1.451-0.562-1.573-1.349
				c-0.136-0.87,0.46-1.686,1.33-1.821l5.26-0.822c0.865-0.131,1.686,0.46,1.821,1.329c0.136,0.87-0.459,1.685-1.329,1.821
				l-5.262,0.822C2003.294,758.254,2003.212,758.26,2003.13,758.26z M2013.651,756.614c-0.771,0-1.449-0.561-1.573-1.347
				c-0.137-0.87,0.458-1.685,1.328-1.822l5.259-0.827c0.879-0.136,1.687,0.458,1.823,1.327c0.137,0.87-0.457,1.686-1.327,1.823
				l-5.261,0.828C2013.817,756.607,2013.733,756.614,2013.651,756.614z M2024.172,754.957c-0.771,0-1.449-0.56-1.572-1.346
				c-0.138-0.87,0.456-1.686,1.325-1.823l5.262-0.832c0.86-0.139,1.686,0.455,1.823,1.325c0.138,0.87-0.455,1.686-1.325,1.824
				l-5.262,0.833C2024.338,754.951,2024.255,754.957,2024.172,754.957z M1762.195,754.615c-0.296,0-0.596-0.082-0.863-0.255
				c-1.473-0.951-2.964-1.919-4.47-2.901c-0.738-0.48-0.946-1.468-0.466-2.206c0.48-0.736,1.467-0.947,2.206-0.465
				c1.504,0.979,2.991,1.945,4.46,2.894c0.739,0.478,0.951,1.464,0.474,2.204C1763.231,754.358,1762.719,754.615,1762.195,754.615z
				 M2034.696,753.289c-0.771,0-1.448-0.559-1.572-1.344c-0.139-0.87,0.454-1.687,1.324-1.825l5.264-0.837
				c0.867-0.146,1.687,0.454,1.825,1.323c0.139,0.87-0.454,1.687-1.323,1.825l-5.266,0.838
				C2034.864,753.283,2034.779,753.289,2034.696,753.289z M2045.229,751.611c-0.77,0-1.447-0.559-1.572-1.343
				c-0.139-0.87,0.453-1.687,1.322-1.826l5.271-0.844c0.863-0.138,1.687,0.453,1.826,1.322c0.14,0.869-0.452,1.687-1.322,1.827
				l-5.271,0.844C2045.397,751.604,2045.313,751.611,2045.229,751.611z M2055.781,749.917c-0.769,0-1.445-0.557-1.572-1.341
				c-0.14-0.869,0.451-1.688,1.32-1.827l5.316-0.859c0.869-0.138,1.688,0.449,1.829,1.318c0.142,0.869-0.448,1.688-1.317,1.829
				l-5.32,0.859C2055.951,749.911,2055.865,749.917,2055.781,749.917z M1753.275,748.805c-0.3,0-0.604-0.084-0.873-0.261
				c-1.47-0.965-2.954-1.942-4.449-2.93c-0.734-0.485-0.937-1.475-0.451-2.209c0.484-0.735,1.474-0.936,2.209-0.451
				c1.493,0.986,2.974,1.961,4.441,2.924c0.735,0.483,0.94,1.472,0.458,2.207C1754.304,748.552,1753.795,748.805,1753.275,748.805z
				 M1744.394,742.938c-0.303,0-0.609-0.086-0.88-0.267c-1.469-0.975-2.946-1.959-4.433-2.953c-0.731-0.489-0.929-1.479-0.439-2.211
				c0.487-0.731,1.478-0.93,2.211-0.44c1.484,0.992,2.96,1.975,4.425,2.949c0.733,0.487,0.934,1.477,0.446,2.21
				C1745.416,742.688,1744.91,742.938,1744.394,742.938z M1735.541,737.027c-0.305,0-0.614-0.087-0.887-0.271l-4.418-2.972
				c-0.73-0.492-0.924-1.483-0.432-2.213c0.492-0.728,1.483-0.925,2.213-0.431l4.414,2.968c0.73,0.491,0.926,1.481,0.435,2.212
				C1736.559,736.78,1736.055,737.027,1735.541,737.027z M1726.718,731.078c-0.308,0-0.619-0.088-0.893-0.274l-4.407-2.988
				c-0.728-0.495-0.917-1.487-0.422-2.215c0.495-0.729,1.489-0.916,2.214-0.423l4.402,2.985c0.729,0.494,0.92,1.485,0.427,2.214
				C1727.73,730.833,1727.229,731.078,1726.718,731.078z M1717.914,725.098c-0.31,0-0.622-0.09-0.896-0.277l-4.388-2.995
				c-0.728-0.497-0.913-1.489-0.417-2.216c0.497-0.727,1.49-0.914,2.216-0.417l4.384,2.993c0.728,0.496,0.916,1.488,0.42,2.215
				C1718.924,724.854,1718.423,725.098,1717.914,725.098z M1709.138,719.096c-0.312,0-0.625-0.09-0.9-0.279l-4.4-3.023
				c-0.725-0.499-0.908-1.492-0.409-2.217c0.501-0.727,1.493-0.907,2.218-0.41l4.395,3.02c0.727,0.498,0.911,1.491,0.413,2.217
				C1710.145,718.854,1709.646,719.096,1709.138,719.096z M1700.358,713.055c-0.313,0-0.628-0.091-0.904-0.282l-4.38-3.025
				c-0.725-0.501-0.906-1.494-0.405-2.218c0.502-0.725,1.495-0.904,2.218-0.405l4.378,3.023c0.725,0.5,0.907,1.493,0.407,2.218
				C1701.362,712.815,1700.864,713.055,1700.358,713.055z M1691.604,707.003c-0.313,0-0.63-0.092-0.907-0.284l-4.373-3.034
				c-0.724-0.502-0.902-1.496-0.4-2.219c0.503-0.724,1.497-0.901,2.219-0.399l4.371,3.032c0.724,0.502,0.903,1.495,0.402,2.219
				C1692.605,706.764,1692.108,707.003,1691.604,707.003z M1682.862,700.931c-0.314,0-0.632-0.093-0.91-0.286l-4.368-3.043
				c-0.722-0.503-0.899-1.497-0.396-2.219c0.504-0.723,1.499-0.899,2.22-0.396l4.366,3.041c0.723,0.503,0.9,1.497,0.397,2.219
				C1683.862,700.693,1683.366,700.931,1682.862,700.931z M1674.133,694.843c-0.315,0-0.634-0.093-0.912-0.288l-4.333-3.03
				c-0.722-0.504-0.912-1.509-0.407-2.23c0.506-0.722,1.484-0.908,2.206-0.403l4.36,3.049c0.722,0.504,0.898,1.498,0.394,2.22
				C1675.131,694.606,1674.636,694.843,1674.133,694.843z M1665.412,688.74c-0.316,0-0.636-0.094-0.914-0.289l-4.358-3.058
				c-0.721-0.506-0.895-1.501-0.389-2.221c0.508-0.722,1.503-0.893,2.221-0.389l4.356,3.056c0.721,0.506,0.896,1.5,0.391,2.221
				C1666.408,688.503,1665.914,688.74,1665.412,688.74z M1656.701,682.623c-0.317,0-0.637-0.094-0.916-0.29l-4.354-3.064
				c-0.72-0.507-0.893-1.502-0.386-2.221c0.508-0.72,1.502-0.893,2.222-0.385l4.352,3.062c0.72,0.506,0.894,1.5,0.388,2.221
				C1657.696,682.387,1657.202,682.623,1656.701,682.623z M1647.996,676.494c-0.317,0-0.639-0.094-0.918-0.292l-4.351-3.068
				c-0.72-0.508-0.892-1.503-0.384-2.222c0.509-0.72,1.505-0.889,2.222-0.384l4.351,3.068c0.72,0.507,0.892,1.502,0.384,2.221
				C1648.989,676.258,1648.496,676.494,1647.996,676.494z M1639.297,670.354c-0.318,0-0.64-0.095-0.919-0.292l-4.35-3.075
				c-0.719-0.508-0.889-1.503-0.381-2.222c0.509-0.718,1.503-0.888,2.223-0.381l4.348,3.073c0.719,0.508,0.891,1.503,0.382,2.222
				C1640.289,670.119,1639.797,670.354,1639.297,670.354z M1630.6,664.205c-0.318,0-0.64-0.095-0.92-0.292l-4.349-3.078
				c-0.719-0.508-0.889-1.504-0.381-2.222c0.511-0.719,1.506-0.89,2.223-0.38l4.349,3.077c0.719,0.508,0.889,1.503,0.381,2.222
				C1631.592,663.971,1631.1,664.205,1630.6,664.205z M1621.902,658.049c-0.319,0-0.641-0.095-0.92-0.293l-4.351-3.079
				c-0.719-0.509-0.889-1.504-0.38-2.222c0.51-0.72,1.506-0.887,2.222-0.38l4.351,3.079c0.719,0.509,0.889,1.504,0.38,2.222
				C1622.894,657.815,1622.401,658.049,1621.902,658.049z M1613.196,651.892c-0.318,0-0.64-0.095-0.919-0.292l-4.359-3.076
				c-0.72-0.507-0.893-1.501-0.386-2.221c0.508-0.719,1.502-0.892,2.222-0.385l4.363,3.079c0.719,0.508,0.891,1.503,0.382,2.222
				C1614.188,651.657,1613.696,651.892,1613.196,651.892z M1604.458,645.743c-0.315,0-0.634-0.093-0.912-0.287
				c-1.996-1.395-3.481-2.418-4.387-3.019c-0.734-0.487-0.935-1.476-0.447-2.21c0.485-0.733,1.476-0.934,2.209-0.447
				c0.919,0.609,2.426,1.647,4.451,3.062c0.722,0.504,0.898,1.498,0.394,2.22C1605.456,645.505,1604.961,645.743,1604.458,645.743z"
				/>
			<path style="clip-path:url(#XMLID_00000041291990157093482840000003325512972709241479_);fill:#1C056D;" d="M1547.61,585.273
				c0,0,2.988,95.226,1.494,96.72c-1.494,1.494-18.298-10.83-18.298-10.83s-1.958-75.94-0.373-80.662
				C1532.016,585.779,1547.61,585.273,1547.61,585.273z"/>
			<path style="clip-path:url(#XMLID_00000041291990157093482840000003325512972709241479_);fill:#1C056D;" d="M1735.406,666.882
				c0,0-72.953-60.066-84.191-62.979c0,0,73.673,16.649,130.698,32.883c57.024,16.233,298.44,12.903,298.44,12.903v24.142
				L1735.406,666.882"/>
		</g>
	</g>
	<g>
		<defs>
			<path id="XMLID_263_" d="M2082.143,721.893c0,0,5.802-9.256,16.645-10.769c10.843-1.513,14.374,0,14.374,0
				s29.116,78.9,23.835,80.568c-5.281,1.668-17.232,1.946-20.846-1.39s-31.028-41.481-31.028-41.481
				S2086.889,728.194,2082.143,721.893z"/>
		</defs>
		<use xlink:href="#XMLID_263_"  style="overflow:visible;fill:#1B3D9E;"/>
		<clipPath id="XMLID_00000078741062289267421880000013424477433011927486_">
			<use xlink:href="#XMLID_263_"  style="overflow:visible;"/>
		</clipPath>
		<path style="clip-path:url(#XMLID_00000078741062289267421880000013424477433011927486_);fill:#1C056D;" d="M2090.323,759.323
			c0,0,7.74-8.818,11.463-8.622c2.306,0.121,3.297,1.709,3.717,2.9c0.262,0.744,0.084,1.568-0.435,2.162
			c-2.168,2.481-8.472,9.524-9.846,9.175C2093.556,764.516,2090.323,759.323,2090.323,759.323z"/>
		<path style="clip-path:url(#XMLID_00000078741062289267421880000013424477433011927486_);fill:#1C056D;" d="M2098.111,770.754
			c0,0,7.74-8.818,11.463-8.622c2.306,0.121,3.297,1.709,3.717,2.9c0.262,0.744,0.084,1.568-0.435,2.162
			c-2.169,2.481-8.473,9.524-9.846,9.175C2101.344,775.947,2098.111,770.754,2098.111,770.754z"/>
		<path style="clip-path:url(#XMLID_00000078741062289267421880000013424477433011927486_);fill:#1C056D;" d="M2105.266,709.178
			c0,0,27.318,81.764,27.128,85.179c0,0,9.106-0.569,9.106-2.846s-22.385-81.954-25.231-82.333
			C2113.424,708.799,2105.266,709.178,2105.266,709.178z"/>
	</g>
	<g>
		<path style="fill:#E57492;" d="M2074.655,636.268c0,0,33.537,4.664,34.166,6.341c0.629,1.677,0.75,24.315,0.75,24.315
			l-34.916,0.062V636.268z"/>
		<g>
			<defs>
				<path id="XMLID_265_" d="M2107.438,641.936c0,0,3.946-9.919,15.482-10.553c11.536-0.634,38.525,13.73,40.934,14.744
					c2.409,1.014,34.915,9.76,35.48,10.046c6.953,3.522,0.763,11.817,0.763,11.817l-90.526-1.067L2107.438,641.936z"/>
			</defs>
			<use xlink:href="#XMLID_265_"  style="overflow:visible;fill:#1B3D9E;"/>
			<clipPath id="XMLID_00000023981088282575573890000002746341996031140780_">
				<use xlink:href="#XMLID_265_"  style="overflow:visible;"/>
			</clipPath>
			<path style="clip-path:url(#XMLID_00000023981088282575573890000002746341996031140780_);fill:#1C056D;" d="M2116.684,631.363
				c1.104,1.017,40.022,19.519,45.805,20.265c5.783,0.746,41.392,10.333,41.392,10.333s1.924-4.87-1.245-6.696
				c-3.168-1.826-37.56-10.044-40.3-11.565c-2.739-1.522-35.914-14.913-38.653-14.457
				C2120.944,629.699,2116.684,631.363,2116.684,631.363z"/>
			<path style="clip-path:url(#XMLID_00000023981088282575573890000002746341996031140780_);fill:#1C056D;" d="M2126.514,668.759
				c0.713-2.566,3.255-14.969,5.191-15.396c1.937-0.428,6.641,0.855,6.498,1.568c-0.143,0.713-1.14,14.256-4.277,14.256
				C2130.79,669.187,2126.514,668.759,2126.514,668.759z"/>
			<path style="clip-path:url(#XMLID_00000023981088282575573890000002746341996031140780_);fill:#1C056D;" d="M2144.947,672.324
				c0.713-2.566,3.255-14.969,5.192-15.396c1.936-0.428,6.641,0.855,6.498,1.568c-0.143,0.713-1.14,14.256-4.277,14.256
				C2149.224,672.752,2144.947,672.324,2144.947,672.324z"/>
		</g>
	</g>
</g>
</svg>
