<svg id="Layer_1" data-name="Layer 1" xmlns="http://www.w3.org/2000/svg" viewBox="0 0 179.68 178.21"><defs><style>.cls-1{fill:#FAF9F6;}</style></defs><rect class="cls-1" x="58.77" y="6.82" width="7.67" height="110.4"/><path class="cls-1" d="M397,399.85H333.4V343.91H226.83v-7.67H397Zm-55.93-7.67h48.26V343.91H341.07Z" transform="translate(-220.16 -278.79)"/><polygon class="cls-1" points="176.84 175.52 117.07 175.52 117.07 167.85 169.17 167.85 169.17 117.22 176.84 117.22 176.84 175.52"/><rect class="cls-1" x="117.07" y="2.99" width="55.94" height="7.67"/><polygon class="cls-1" points="62.61 175.18 2.83 175.18 2.83 117.22 10.51 117.22 10.51 167.51 62.61 167.51 62.61 175.18"/><circle class="cls-1" cx="62.54" cy="61.34" r="4.53"/><circle class="cls-1" cx="117.18" cy="61.56" r="4.53"/><circle class="cls-1" cx="173.1" cy="61.26" r="4.53"/><circle class="cls-1" cx="117.07" cy="6.82" r="6.7"/><circle class="cls-1" cx="172.91" cy="6.7" r="6.7"/><circle class="cls-1" cx="172.97" cy="61.17" r="6.7"/><circle class="cls-1" cx="117.09" cy="61.22" r="6.7"/><circle class="cls-1" cx="62.53" cy="61.1" r="6.7"/><circle class="cls-1" cx="62.4" cy="6.83" r="6.7"/><circle class="cls-1" cx="6.72" cy="61.13" r="6.7"/><circle class="cls-1" cx="6.7" cy="117.37" r="6.7"/><circle class="cls-1" cx="62.57" cy="117.19" r="6.7"/><circle class="cls-1" cx="117.02" cy="117.22" r="6.7"/><circle class="cls-1" cx="172.9" cy="117.28" r="6.7"/><circle class="cls-1" cx="117.04" cy="171.47" r="6.7"/><circle class="cls-1" cx="172.97" cy="171.51" r="6.7"/><circle class="cls-1" cx="62.57" cy="171.46" r="6.7"/><circle class="cls-1" cx="6.73" cy="171.16" r="6.7"/></svg>